solid OpenSCAD_Model
  facet normal -1 0 0
    outer loop
      vertex 0 0 0
      vertex 0 -8.15 1.80966e-15
      vertex 0 1.77636e-15 8
    endloop
  endfacet
  facet normal -1 0 0
    outer loop
      vertex 0 1.77636e-15 8
      vertex 0 -8.15 1.80966e-15
      vertex 0 -8.15 8
    endloop
  endfacet
  facet normal 0 -2.22045e-16 -1
    outer loop
      vertex 1.5 -7 1.55431e-15
      vertex 0 -8.15 1.80966e-15
      vertex 1.5 -1 2.22045e-16
    endloop
  endfacet
  facet normal 0 -2.22045e-16 -1
    outer loop
      vertex 10.3 -8 1.77636e-15
      vertex 10.5 0 0
      vertex 10.5 -8 1.77636e-15
    endloop
  endfacet
  facet normal 0 -2.22045e-16 -1
    outer loop
      vertex 9 -7 1.55431e-15
      vertex 10.5 0 0
      vertex 10.3 -8 1.77636e-15
    endloop
  endfacet
  facet normal 0 -2.22045e-16 -1
    outer loop
      vertex 8.3 -7 1.55431e-15
      vertex 10.3 -8 1.77636e-15
      vertex 8.3 -8.15 1.80966e-15
    endloop
  endfacet
  facet normal 0 -2.22045e-16 -1
    outer loop
      vertex 9 -1 2.22045e-16
      vertex 10.5 0 0
      vertex 9 -7 1.55431e-15
    endloop
  endfacet
  facet normal 0 -2.22045e-16 -1
    outer loop
      vertex 8.3 -7 1.55431e-15
      vertex 9 -7 1.55431e-15
      vertex 10.3 -8 1.77636e-15
    endloop
  endfacet
  facet normal 0 -2.22045e-16 -1
    outer loop
      vertex 0 0 0
      vertex 10.5 0 0
      vertex 9 -1 2.22045e-16
    endloop
  endfacet
  facet normal 0 -2.22045e-16 -1
    outer loop
      vertex 0 0 0
      vertex 9 -1 2.22045e-16
      vertex 1.5 -1 2.22045e-16
    endloop
  endfacet
  facet normal 0 -2.22045e-16 -1
    outer loop
      vertex 0 0 0
      vertex 1.5 -1 2.22045e-16
      vertex 0 -8.15 1.80966e-15
    endloop
  endfacet
  facet normal 0 -2.22045e-16 -1
    outer loop
      vertex 0 -8.15 1.80966e-15
      vertex 1.5 -7 1.55431e-15
      vertex 2 -7 1.55431e-15
    endloop
  endfacet
  facet normal 0 -2.22045e-16 -1
    outer loop
      vertex 2 -8.15 1.80966e-15
      vertex 0 -8.15 1.80966e-15
      vertex 2 -7 1.55431e-15
    endloop
  endfacet
  facet normal 0 -2.22045e-16 -1
    outer loop
      vertex 10.3 -8.15 1.80966e-15
      vertex 8.3 -8.15 1.80966e-15
      vertex 10.3 -8 1.77636e-15
    endloop
  endfacet
  facet normal 0 1 -2.22045e-16
    outer loop
      vertex 0 0 0
      vertex 0 1.77636e-15 8
      vertex 10.5 0 0
    endloop
  endfacet
  facet normal 0 1 -2.22045e-16
    outer loop
      vertex 10.5 0 0
      vertex 0 1.77636e-15 8
      vertex 10.5 1.77636e-15 8
    endloop
  endfacet
  facet normal 0 2.22045e-16 1
    outer loop
      vertex 1.5 -1 8
      vertex 0 1.77636e-15 8
      vertex 0 -8.15 8
    endloop
  endfacet
  facet normal 0 2.22045e-16 1
    outer loop
      vertex 8.3 -7 8
      vertex 8.3 -8.15 8
      vertex 9 -7 8
    endloop
  endfacet
  facet normal 0 2.22045e-16 1
    outer loop
      vertex 2 -8.15 8
      vertex 2 -7 8
      vertex 0 -8.15 8
    endloop
  endfacet
  facet normal 0 2.22045e-16 1
    outer loop
      vertex 2 -7 8
      vertex 1.5 -7 8
      vertex 0 -8.15 8
    endloop
  endfacet
  facet normal 0 2.22045e-16 1
    outer loop
      vertex 10.5 1.77636e-15 8
      vertex 0 1.77636e-15 8
      vertex 1.5 -1 8
    endloop
  endfacet
  facet normal 0 2.22045e-16 1
    outer loop
      vertex 10.5 1.77636e-15 8
      vertex 1.5 -1 8
      vertex 9 -1 8
    endloop
  endfacet
  facet normal 0 2.22045e-16 1
    outer loop
      vertex 10.3 -8 8
      vertex 10.5 1.77636e-15 8
      vertex 9 -7 8
    endloop
  endfacet
  facet normal 0 2.22045e-16 1
    outer loop
      vertex 10.3 -8 8
      vertex 10.5 -8 8
      vertex 10.5 1.77636e-15 8
    endloop
  endfacet
  facet normal 0 2.22045e-16 1
    outer loop
      vertex 10.3 -8.15 8
      vertex 9 -7 8
      vertex 8.3 -8.15 8
    endloop
  endfacet
  facet normal 0 2.22045e-16 1
    outer loop
      vertex 10.3 -8.15 8
      vertex 10.3 -8 8
      vertex 9 -7 8
    endloop
  endfacet
  facet normal 0 2.22045e-16 1
    outer loop
      vertex 1.5 -7 8
      vertex 1.5 -1 8
      vertex 0 -8.15 8
    endloop
  endfacet
  facet normal 0 2.22045e-16 1
    outer loop
      vertex 9 -1 8
      vertex 9 -7 8
      vertex 10.5 1.77636e-15 8
    endloop
  endfacet
  facet normal 0 -1 2.22045e-16
    outer loop
      vertex 0 -8.15 8
      vertex 0 -8.15 1.80966e-15
      vertex 2 -8.15 1.80966e-15
    endloop
  endfacet
  facet normal 0 -1 2.22045e-16
    outer loop
      vertex 2 -8.15 8
      vertex 0 -8.15 8
      vertex 2 -8.15 1.80966e-15
    endloop
  endfacet
  facet normal 1 0 0
    outer loop
      vertex 2 -8.15 1.80966e-15
      vertex 2 -7 1.55431e-15
      vertex 2 -7 8
    endloop
  endfacet
  facet normal 1 0 0
    outer loop
      vertex 2 -8.15 8
      vertex 2 -8.15 1.80966e-15
      vertex 2 -7 8
    endloop
  endfacet
  facet normal 0 1 -2.22045e-16
    outer loop
      vertex 1.5 -7 1.55431e-15
      vertex 1.5 -7 8
      vertex 2 -7 1.55431e-15
    endloop
  endfacet
  facet normal 0 1 -2.22045e-16
    outer loop
      vertex 2 -7 1.55431e-15
      vertex 1.5 -7 8
      vertex 2 -7 8
    endloop
  endfacet
  facet normal 1 0 0
    outer loop
      vertex 1.5 -1 8
      vertex 1.5 -7 8
      vertex 1.5 -7 1.55431e-15
    endloop
  endfacet
  facet normal 1 0 0
    outer loop
      vertex 1.5 -1 2.22045e-16
      vertex 1.5 -1 8
      vertex 1.5 -7 1.55431e-15
    endloop
  endfacet
  facet normal 0 -1 2.22045e-16
    outer loop
      vertex 9 -1 2.22045e-16
      vertex 9 -1 8
      vertex 1.5 -1 8
    endloop
  endfacet
  facet normal 0 -1 2.22045e-16
    outer loop
      vertex 1.5 -1 2.22045e-16
      vertex 9 -1 2.22045e-16
      vertex 1.5 -1 8
    endloop
  endfacet
  facet normal -1 0 0
    outer loop
      vertex 9 -7 8
      vertex 9 -1 8
      vertex 9 -7 1.55431e-15
    endloop
  endfacet
  facet normal -1 0 0
    outer loop
      vertex 9 -7 1.55431e-15
      vertex 9 -1 8
      vertex 9 -1 2.22045e-16
    endloop
  endfacet
  facet normal 0 1 -2.22045e-16
    outer loop
      vertex 8.3 -7 1.55431e-15
      vertex 8.3 -7 8
      vertex 9 -7 1.55431e-15
    endloop
  endfacet
  facet normal 0 1 -2.22045e-16
    outer loop
      vertex 9 -7 1.55431e-15
      vertex 8.3 -7 8
      vertex 9 -7 8
    endloop
  endfacet
  facet normal -1 0 0
    outer loop
      vertex 8.3 -7 1.55431e-15
      vertex 8.3 -8.15 1.80966e-15
      vertex 8.3 -7 8
    endloop
  endfacet
  facet normal -1 0 0
    outer loop
      vertex 8.3 -7 8
      vertex 8.3 -8.15 1.80966e-15
      vertex 8.3 -8.15 8
    endloop
  endfacet
  facet normal 0 -1 2.22045e-16
    outer loop
      vertex 8.3 -8.15 8
      vertex 8.3 -8.15 1.80966e-15
      vertex 10.3 -8.15 1.80966e-15
    endloop
  endfacet
  facet normal 0 -1 2.22045e-16
    outer loop
      vertex 10.3 -8.15 8
      vertex 8.3 -8.15 8
      vertex 10.3 -8.15 1.80966e-15
    endloop
  endfacet
  facet normal 1 0 0
    outer loop
      vertex 10.3 -8.15 1.80966e-15
      vertex 10.3 -8 1.77636e-15
      vertex 10.3 -8 8
    endloop
  endfacet
  facet normal 1 0 0
    outer loop
      vertex 10.3 -8.15 8
      vertex 10.3 -8.15 1.80966e-15
      vertex 10.3 -8 8
    endloop
  endfacet
  facet normal 0 -1 2.22045e-16
    outer loop
      vertex 10.3 -8 8
      vertex 10.3 -8 1.77636e-15
      vertex 10.5 -8 1.77636e-15
    endloop
  endfacet
  facet normal 0 -1 2.22045e-16
    outer loop
      vertex 10.5 -8 8
      vertex 10.3 -8 8
      vertex 10.5 -8 1.77636e-15
    endloop
  endfacet
  facet normal 1 0 0
    outer loop
      vertex 10.5 -8 1.77636e-15
      vertex 10.5 0 0
      vertex 10.5 1.77636e-15 8
    endloop
  endfacet
  facet normal 1 0 0
    outer loop
      vertex 10.5 -8 8
      vertex 10.5 -8 1.77636e-15
      vertex 10.5 1.77636e-15 8
    endloop
  endfacet
endsolid OpenSCAD_Model
