solid OpenSCAD_Model
  facet normal -1 0 0
    outer loop
      vertex 0 -6.9 1.53211e-15
      vertex 0 -6.9 4.5
      vertex 0 0 0
    endloop
  endfacet
  facet normal -1 0 0
    outer loop
      vertex 0 0 0
      vertex 0 -6.9 4.5
      vertex 0 9.99201e-16 4.5
    endloop
  endfacet
  facet normal 0 -1 2.22045e-16
    outer loop
      vertex 0 -6.9 1.53211e-15
      vertex 5.8 -6.9 1.53211e-15
      vertex 5.8 -6.9 4.5
    endloop
  endfacet
  facet normal 0 -1 2.22045e-16
    outer loop
      vertex 0 -6.9 4.5
      vertex 0 -6.9 1.53211e-15
      vertex 5.8 -6.9 4.5
    endloop
  endfacet
  facet normal 0 -2.22045e-16 -1
    outer loop
      vertex 5.8 0 0
      vertex 5.8 -6.9 1.53211e-15
      vertex 0 0 0
    endloop
  endfacet
  facet normal 0 -2.22045e-16 -1
    outer loop
      vertex 0 0 0
      vertex 5.8 -6.9 1.53211e-15
      vertex 0 -6.9 1.53211e-15
    endloop
  endfacet
  facet normal 0 1 -2.22045e-16
    outer loop
      vertex 0 9.99201e-16 4.5
      vertex 5.8 9.99201e-16 4.5
      vertex 0 0 0
    endloop
  endfacet
  facet normal 0 1 -2.22045e-16
    outer loop
      vertex 0 0 0
      vertex 5.8 9.99201e-16 4.5
      vertex 5.8 0 0
    endloop
  endfacet
  facet normal 0 2.22045e-16 1
    outer loop
      vertex 0 9.99201e-16 4.5
      vertex 0 -6.9 4.5
      vertex 5.8 -6.9 4.5
    endloop
  endfacet
  facet normal 0 2.22045e-16 1
    outer loop
      vertex 5.8 9.99201e-16 4.5
      vertex 0 9.99201e-16 4.5
      vertex 5.8 -6.9 4.5
    endloop
  endfacet
  facet normal 1 0 0
    outer loop
      vertex 5.8 0 0
      vertex 5.8 9.99201e-16 4.5
      vertex 5.8 -6.9 4.5
    endloop
  endfacet
  facet normal 1 0 0
    outer loop
      vertex 5.8 -6.9 1.53211e-15
      vertex 5.8 0 0
      vertex 5.8 -6.9 4.5
    endloop
  endfacet
endsolid OpenSCAD_Model
