solid OpenSCAD_Model
  facet normal -1 0 0
    outer loop
      vertex 0 0 0.8
      vertex 0 0 7.35
      vertex 0 5 0.8
    endloop
  endfacet
  facet normal -1 0 0
    outer loop
      vertex 0 5 0.8
      vertex 0 0 7.35
      vertex 0 5 7.35
    endloop
  endfacet
  facet normal 0 -1 0
    outer loop
      vertex 0.9 0 2.8
      vertex 0 0 0.8
      vertex 8 0 0.8
    endloop
  endfacet
  facet normal 0 -1 0
    outer loop
      vertex 7.15 0 6.2
      vertex 7.15 0 2.8
      vertex 8 0 0.8
    endloop
  endfacet
  facet normal 0 -1 0
    outer loop
      vertex 8 0 7.35
      vertex 7.15 0 6.2
      vertex 8 0 0.8
    endloop
  endfacet
  facet normal 0 -1 0
    outer loop
      vertex 8 0 7.35
      vertex 6 0 7.35
      vertex 7.15 0 6.2
    endloop
  endfacet
  facet normal 0 -1 0
    outer loop
      vertex 2 0 6.2
      vertex 2 0 7.35
      vertex 0 0 7.35
    endloop
  endfacet
  facet normal 0 -1 0
    outer loop
      vertex 0 0 7.35
      vertex 0 0 0.8
      vertex 0.9 0 2.8
    endloop
  endfacet
  facet normal 0 -1 0
    outer loop
      vertex 0.9 0 6.2
      vertex 2 0 6.2
      vertex 0 0 7.35
    endloop
  endfacet
  facet normal 0 -1 0
    outer loop
      vertex 0 0 7.35
      vertex 0.9 0 2.8
      vertex 0.9 0 6.2
    endloop
  endfacet
  facet normal 0 -1 0
    outer loop
      vertex 6 0 6.2
      vertex 7.15 0 6.2
      vertex 6 0 7.35
    endloop
  endfacet
  facet normal 0 -1 0
    outer loop
      vertex 7.15 0 2.8
      vertex 0.9 0 2.8
      vertex 8 0 0.8
    endloop
  endfacet
  facet normal 0 0 -1
    outer loop
      vertex 0 0 0.8
      vertex 0 5 0.8
      vertex 8 0 0.8
    endloop
  endfacet
  facet normal 0 0 -1
    outer loop
      vertex 8 0 0.8
      vertex 0 5 0.8
      vertex 8 5 0.8
    endloop
  endfacet
  facet normal 0 1 0
    outer loop
      vertex 7.15 5 2.8
      vertex 8 5 0.8
      vertex 0.9 5 2.8
    endloop
  endfacet
  facet normal 0 1 0
    outer loop
      vertex 2 5 6.2
      vertex 0 5 7.35
      vertex 2 5 7.35
    endloop
  endfacet
  facet normal 0 1 0
    outer loop
      vertex 0 5 0.8
      vertex 0 5 7.35
      vertex 0.9 5 6.2
    endloop
  endfacet
  facet normal 0 1 0
    outer loop
      vertex 0 5 0.8
      vertex 0.9 5 6.2
      vertex 0.9 5 2.8
    endloop
  endfacet
  facet normal 0 1 0
    outer loop
      vertex 0 5 0.8
      vertex 0.9 5 2.8
      vertex 8 5 0.8
    endloop
  endfacet
  facet normal 0 1 0
    outer loop
      vertex 6 5 7.35
      vertex 7.15 5 6.2
      vertex 6 5 6.2
    endloop
  endfacet
  facet normal 0 1 0
    outer loop
      vertex 8 5 0.8
      vertex 7.15 5 2.8
      vertex 7.15 5 6.2
    endloop
  endfacet
  facet normal 0 1 0
    outer loop
      vertex 7.15 5 6.2
      vertex 6 5 7.35
      vertex 8 5 7.35
    endloop
  endfacet
  facet normal 0 1 0
    outer loop
      vertex 7.15 5 6.2
      vertex 8 5 7.35
      vertex 8 5 0.8
    endloop
  endfacet
  facet normal 0 1 0
    outer loop
      vertex 0.9 5 6.2
      vertex 0 5 7.35
      vertex 2 5 6.2
    endloop
  endfacet
  facet normal 0 0 1
    outer loop
      vertex 0 5 7.35
      vertex 0 0 7.35
      vertex 2 0 7.35
    endloop
  endfacet
  facet normal 0 0 1
    outer loop
      vertex 2 5 7.35
      vertex 0 5 7.35
      vertex 2 0 7.35
    endloop
  endfacet
  facet normal 1 0 0
    outer loop
      vertex 2 0 7.35
      vertex 2 0 6.2
      vertex 2 5 6.2
    endloop
  endfacet
  facet normal 1 0 0
    outer loop
      vertex 2 5 7.35
      vertex 2 0 7.35
      vertex 2 5 6.2
    endloop
  endfacet
  facet normal 0 0 -1
    outer loop
      vertex 2 5 6.2
      vertex 2 0 6.2
      vertex 0.9 5 6.2
    endloop
  endfacet
  facet normal 0 0 -1
    outer loop
      vertex 0.9 5 6.2
      vertex 2 0 6.2
      vertex 0.9 0 6.2
    endloop
  endfacet
  facet normal 1 0 0
    outer loop
      vertex 0.9 5 2.8
      vertex 0.9 5 6.2
      vertex 0.9 0 6.2
    endloop
  endfacet
  facet normal 1 0 0
    outer loop
      vertex 0.9 0 2.8
      vertex 0.9 5 2.8
      vertex 0.9 0 6.2
    endloop
  endfacet
  facet normal 0 0 1
    outer loop
      vertex 7.15 0 2.8
      vertex 7.15 5 2.8
      vertex 0.9 5 2.8
    endloop
  endfacet
  facet normal 0 0 1
    outer loop
      vertex 0.9 0 2.8
      vertex 7.15 0 2.8
      vertex 0.9 5 2.8
    endloop
  endfacet
  facet normal -1 0 0
    outer loop
      vertex 7.15 5 6.2
      vertex 7.15 5 2.8
      vertex 7.15 0 6.2
    endloop
  endfacet
  facet normal -1 0 0
    outer loop
      vertex 7.15 0 6.2
      vertex 7.15 5 2.8
      vertex 7.15 0 2.8
    endloop
  endfacet
  facet normal 0 0 -1
    outer loop
      vertex 7.15 5 6.2
      vertex 7.15 0 6.2
      vertex 6 5 6.2
    endloop
  endfacet
  facet normal 0 0 -1
    outer loop
      vertex 6 5 6.2
      vertex 7.15 0 6.2
      vertex 6 0 6.2
    endloop
  endfacet
  facet normal -1 0 0
    outer loop
      vertex 6 0 6.2
      vertex 6 0 7.35
      vertex 6 5 6.2
    endloop
  endfacet
  facet normal -1 0 0
    outer loop
      vertex 6 5 6.2
      vertex 6 0 7.35
      vertex 6 5 7.35
    endloop
  endfacet
  facet normal 0 0 1
    outer loop
      vertex 6 5 7.35
      vertex 6 0 7.35
      vertex 8 0 7.35
    endloop
  endfacet
  facet normal 0 0 1
    outer loop
      vertex 8 5 7.35
      vertex 6 5 7.35
      vertex 8 0 7.35
    endloop
  endfacet
  facet normal 1 0 0
    outer loop
      vertex 8 0 7.35
      vertex 8 0 0.8
      vertex 8 5 0.8
    endloop
  endfacet
  facet normal 1 0 0
    outer loop
      vertex 8 5 7.35
      vertex 8 0 7.35
      vertex 8 5 0.8
    endloop
  endfacet
endsolid OpenSCAD_Model
