solid OpenSCAD_Model
  facet normal -1 0 0
    outer loop
      vertex 0 0 0
      vertex 0 -6.55 1.45439e-15
      vertex 0 1.9984e-15 9
    endloop
  endfacet
  facet normal -1 0 0
    outer loop
      vertex 0 1.9984e-15 9
      vertex 0 -6.55 1.45439e-15
      vertex 0 -6.55 9
    endloop
  endfacet
  facet normal 0 -2.22045e-16 -1
    outer loop
      vertex 10.3 -6.5 1.44329e-15
      vertex 10.5 0 0
      vertex 10.5 -6.5 1.44329e-15
    endloop
  endfacet
  facet normal 0 -2.22045e-16 -1
    outer loop
      vertex 9.5 -5.4 1.19904e-15
      vertex 10.5 0 0
      vertex 10.3 -6.5 1.44329e-15
    endloop
  endfacet
  facet normal 0 -2.22045e-16 -1
    outer loop
      vertex 8.3 -5.4 1.19904e-15
      vertex 10.3 -6.5 1.44329e-15
      vertex 8.3 -6.55 1.45439e-15
    endloop
  endfacet
  facet normal 0 -2.22045e-16 -1
    outer loop
      vertex 1 -1 2.22045e-16
      vertex 10.5 0 0
      vertex 9.5 -1 2.22045e-16
    endloop
  endfacet
  facet normal 0 -2.22045e-16 -1
    outer loop
      vertex 9.5 -1 2.22045e-16
      vertex 10.5 0 0
      vertex 9.5 -5.4 1.19904e-15
    endloop
  endfacet
  facet normal 0 -2.22045e-16 -1
    outer loop
      vertex 8.3 -5.4 1.19904e-15
      vertex 9.5 -5.4 1.19904e-15
      vertex 10.3 -6.5 1.44329e-15
    endloop
  endfacet
  facet normal 0 -2.22045e-16 -1
    outer loop
      vertex 0 0 0
      vertex 10.5 0 0
      vertex 1 -1 2.22045e-16
    endloop
  endfacet
  facet normal 0 -2.22045e-16 -1
    outer loop
      vertex 0 0 0
      vertex 1 -1 2.22045e-16
      vertex 0 -6.55 1.45439e-15
    endloop
  endfacet
  facet normal 0 -2.22045e-16 -1
    outer loop
      vertex 2 -5.4 1.19904e-15
      vertex 0 -6.55 1.45439e-15
      vertex 1 -5.4 1.19904e-15
    endloop
  endfacet
  facet normal 0 -2.22045e-16 -1
    outer loop
      vertex 1 -1 2.22045e-16
      vertex 1 -5.4 1.19904e-15
      vertex 0 -6.55 1.45439e-15
    endloop
  endfacet
  facet normal 0 -2.22045e-16 -1
    outer loop
      vertex 2 -6.55 1.45439e-15
      vertex 0 -6.55 1.45439e-15
      vertex 2 -5.4 1.19904e-15
    endloop
  endfacet
  facet normal 0 -2.22045e-16 -1
    outer loop
      vertex 10.3 -6.55 1.45439e-15
      vertex 8.3 -6.55 1.45439e-15
      vertex 10.3 -6.5 1.44329e-15
    endloop
  endfacet
  facet normal 0 1 -2.22045e-16
    outer loop
      vertex 0 0 0
      vertex 0 1.9984e-15 9
      vertex 10.5 0 0
    endloop
  endfacet
  facet normal 0 1 -2.22045e-16
    outer loop
      vertex 10.5 0 0
      vertex 0 1.9984e-15 9
      vertex 10.5 1.9984e-15 9
    endloop
  endfacet
  facet normal 0 2.22045e-16 1
    outer loop
      vertex 1 -5.4 9
      vertex 0 1.9984e-15 9
      vertex 0 -6.55 9
    endloop
  endfacet
  facet normal 0 2.22045e-16 1
    outer loop
      vertex 2 -6.55 9
      vertex 2 -5.4 9
      vertex 0 -6.55 9
    endloop
  endfacet
  facet normal 0 2.22045e-16 1
    outer loop
      vertex 8.3 -5.4 9
      vertex 8.3 -6.55 9
      vertex 9.5 -5.4 9
    endloop
  endfacet
  facet normal 0 2.22045e-16 1
    outer loop
      vertex 1 -1 9
      vertex 0 1.9984e-15 9
      vertex 1 -5.4 9
    endloop
  endfacet
  facet normal 0 2.22045e-16 1
    outer loop
      vertex 10.5 1.9984e-15 9
      vertex 0 1.9984e-15 9
      vertex 1 -1 9
    endloop
  endfacet
  facet normal 0 2.22045e-16 1
    outer loop
      vertex 9.5 -5.4 9
      vertex 10.5 1.9984e-15 9
      vertex 9.5 -1 9
    endloop
  endfacet
  facet normal 0 2.22045e-16 1
    outer loop
      vertex 10.3 -6.5 9
      vertex 10.5 1.9984e-15 9
      vertex 9.5 -5.4 9
    endloop
  endfacet
  facet normal 0 2.22045e-16 1
    outer loop
      vertex 10.3 -6.5 9
      vertex 10.5 -6.5 9
      vertex 10.5 1.9984e-15 9
    endloop
  endfacet
  facet normal 0 2.22045e-16 1
    outer loop
      vertex 10.3 -6.55 9
      vertex 9.5 -5.4 9
      vertex 8.3 -6.55 9
    endloop
  endfacet
  facet normal 0 2.22045e-16 1
    outer loop
      vertex 10.3 -6.55 9
      vertex 10.3 -6.5 9
      vertex 9.5 -5.4 9
    endloop
  endfacet
  facet normal 0 2.22045e-16 1
    outer loop
      vertex 2 -5.4 9
      vertex 1 -5.4 9
      vertex 0 -6.55 9
    endloop
  endfacet
  facet normal 0 2.22045e-16 1
    outer loop
      vertex 1 -1 9
      vertex 9.5 -1 9
      vertex 10.5 1.9984e-15 9
    endloop
  endfacet
  facet normal 0 -1 2.22045e-16
    outer loop
      vertex 0 -6.55 9
      vertex 0 -6.55 1.45439e-15
      vertex 2 -6.55 1.45439e-15
    endloop
  endfacet
  facet normal 0 -1 2.22045e-16
    outer loop
      vertex 2 -6.55 9
      vertex 0 -6.55 9
      vertex 2 -6.55 1.45439e-15
    endloop
  endfacet
  facet normal 1 0 0
    outer loop
      vertex 2 -6.55 1.45439e-15
      vertex 2 -5.4 1.19904e-15
      vertex 2 -5.4 9
    endloop
  endfacet
  facet normal 1 0 0
    outer loop
      vertex 2 -6.55 9
      vertex 2 -6.55 1.45439e-15
      vertex 2 -5.4 9
    endloop
  endfacet
  facet normal 0 1 -2.22045e-16
    outer loop
      vertex 1 -5.4 1.19904e-15
      vertex 1 -5.4 9
      vertex 2 -5.4 1.19904e-15
    endloop
  endfacet
  facet normal 0 1 -2.22045e-16
    outer loop
      vertex 2 -5.4 1.19904e-15
      vertex 1 -5.4 9
      vertex 2 -5.4 9
    endloop
  endfacet
  facet normal 1 0 0
    outer loop
      vertex 1 -1 9
      vertex 1 -5.4 9
      vertex 1 -5.4 1.19904e-15
    endloop
  endfacet
  facet normal 1 0 0
    outer loop
      vertex 1 -1 2.22045e-16
      vertex 1 -1 9
      vertex 1 -5.4 1.19904e-15
    endloop
  endfacet
  facet normal 0 -1 2.22045e-16
    outer loop
      vertex 9.5 -1 2.22045e-16
      vertex 9.5 -1 9
      vertex 1 -1 9
    endloop
  endfacet
  facet normal 0 -1 2.22045e-16
    outer loop
      vertex 1 -1 2.22045e-16
      vertex 9.5 -1 2.22045e-16
      vertex 1 -1 9
    endloop
  endfacet
  facet normal -1 0 0
    outer loop
      vertex 9.5 -5.4 9
      vertex 9.5 -1 9
      vertex 9.5 -5.4 1.19904e-15
    endloop
  endfacet
  facet normal -1 0 0
    outer loop
      vertex 9.5 -5.4 1.19904e-15
      vertex 9.5 -1 9
      vertex 9.5 -1 2.22045e-16
    endloop
  endfacet
  facet normal 0 1 -2.22045e-16
    outer loop
      vertex 8.3 -5.4 1.19904e-15
      vertex 8.3 -5.4 9
      vertex 9.5 -5.4 1.19904e-15
    endloop
  endfacet
  facet normal 0 1 -2.22045e-16
    outer loop
      vertex 9.5 -5.4 1.19904e-15
      vertex 8.3 -5.4 9
      vertex 9.5 -5.4 9
    endloop
  endfacet
  facet normal -1 0 0
    outer loop
      vertex 8.3 -5.4 1.19904e-15
      vertex 8.3 -6.55 1.45439e-15
      vertex 8.3 -5.4 9
    endloop
  endfacet
  facet normal -1 0 0
    outer loop
      vertex 8.3 -5.4 9
      vertex 8.3 -6.55 1.45439e-15
      vertex 8.3 -6.55 9
    endloop
  endfacet
  facet normal 0 -1 2.22045e-16
    outer loop
      vertex 8.3 -6.55 9
      vertex 8.3 -6.55 1.45439e-15
      vertex 10.3 -6.55 1.45439e-15
    endloop
  endfacet
  facet normal 0 -1 2.22045e-16
    outer loop
      vertex 10.3 -6.55 9
      vertex 8.3 -6.55 9
      vertex 10.3 -6.55 1.45439e-15
    endloop
  endfacet
  facet normal 1 0 0
    outer loop
      vertex 10.3 -6.55 1.45439e-15
      vertex 10.3 -6.5 1.44329e-15
      vertex 10.3 -6.5 9
    endloop
  endfacet
  facet normal 1 0 0
    outer loop
      vertex 10.3 -6.55 9
      vertex 10.3 -6.55 1.45439e-15
      vertex 10.3 -6.5 9
    endloop
  endfacet
  facet normal 0 -1 2.22045e-16
    outer loop
      vertex 10.3 -6.5 9
      vertex 10.3 -6.5 1.44329e-15
      vertex 10.5 -6.5 1.44329e-15
    endloop
  endfacet
  facet normal 0 -1 2.22045e-16
    outer loop
      vertex 10.5 -6.5 9
      vertex 10.3 -6.5 9
      vertex 10.5 -6.5 1.44329e-15
    endloop
  endfacet
  facet normal 1 0 0
    outer loop
      vertex 10.5 -6.5 1.44329e-15
      vertex 10.5 0 0
      vertex 10.5 1.9984e-15 9
    endloop
  endfacet
  facet normal 1 0 0
    outer loop
      vertex 10.5 -6.5 9
      vertex 10.5 -6.5 1.44329e-15
      vertex 10.5 1.9984e-15 9
    endloop
  endfacet
endsolid OpenSCAD_Model
